# xmcd
#
# Track frame offsets:
#	150
#	7535
#	13961
#	21386
#	28145
#	39280
#	45758
#	57560
#	62893
#	68789
#	73698
#	81191
#	96753
#	101952
#	109240
#	120189
#	127120
#	137527
#	149339
#	157131
#	168385
#	176138
#	183852
#	192981
#	203025
#	213829
#	227525
#	250482
#	256686
#	269543
#	279483
#	290258
#	306069
#
# Disc length: 4260 seconds
#
# Revision: 0
# Processed by: cddbd v1.5.2PL0 Copyright (c) Steve Scherf et al.
# Submitted via: audiograbber 1.83.01
#
DISCID=db10a221
DTITLE=Sampler - Oktoberfest megamix 2006 - CD 2
DYEAR=2006
DGENRE=
TTITLE0=Almklausi - deine schwester ist ein richtig geiles luder
TTITLE1=BB Jürgen - Ich mach ein glückliches mädchen aus dir
TTITLE2=Partystars United - Gute freunde
TTITLE3=Mickie Krause - Alle total versaut
TTITLE4=DJ Ostkurve vs. Soccer DJ - Ole ole ole [the name of the game]
TTITLE5=Chris Marlow - Looking for freedom
TTITLE6=DJ Chriss Tuxi - In nomine party
TTITLE7=Schweber - Schüttn' auf der hüttn'
TTITLE8=DJ August - Egal
TTITLE9=Willi Herren and Markus Becker - Ich glaub es geht schon wieder los
TTITLE10=Partyschweine - Migräne
TTITLE11=Biwi - S'dirndl
TTITLE12=Dani and Die Wahnsinnskrainer - Wahnsinn
TTITLE13=Höllbach Sound - Das lied der schlümpfe 2006 ]feat. Lars K.[
TTITLE14=Florian Silbereisen - Steirermen san very good
TTITLE15=Bergmann Lauster - Glück auf [wir sind gut drauf]
TTITLE16=Chris Marlow - Ab in die sonne
TTITLE17=O'Heller Project - Just the way it is
TTITLE18=Lazard - Living on video
TTITLE19=Beatmixer - Hung up ]feat. Mystirious Girl[
TTITLE20=Vinylshakerz - Daddy cool
TTITLE21=Conways - A walk in the park ]feat. The Nick Straker Band[
TTITLE22=Dancefloor Saints - Ten o'clock postman
TTITLE23=Rytmo Ritmo - hello mallorca [welcome to ibiza]
TTITLE24=Yamboo - Sing hallelujah ]feat. Dr. Alban[
TTITLE25=Howie Nuvo vs. Tim Toupet - Hello again
TTITLE26=Münchener Stadtmusikanten - Hofbräuhaus medley 1
TTITLE27=Diana Sorbello - Ich fang nie mehr was an einem sonntag an
TTITLE28=2Jam - Jeans on ]feat. MC Junior Jc[
TTITLE29=Robumski - Dicke titten
TTITLE30=Lollies - Wenn du denkst du denkst ...
TTITLE31=Marianne and Michael - In münchen steht ein hofbräuhaus
TTITLE32=Zillertaler Schürzenjäger - Sierra madre
EXTD=
EXTT0=
EXTT1=
EXTT2=
EXTT3=
EXTT4=
EXTT5=
EXTT6=
EXTT7=
EXTT8=
EXTT9=
EXTT10=
EXTT11=
EXTT12=
EXTT13=
EXTT14=
EXTT15=
EXTT16=
EXTT17=
EXTT18=
EXTT19=
EXTT20=
EXTT21=
EXTT22=
EXTT23=
EXTT24=
EXTT25=
EXTT26=
EXTT27=
EXTT28=
EXTT29=
EXTT30=
EXTT31=
EXTT32=
PLAYORDER=
